<?xml version="1.0" standalone="no"?>
<!DOCTYPE svg PUBLIC "-//W3C//DTD SVG 20010904//EN"
 "http://www.w3.org/TR/2001/REC-SVG-20010904/DTD/svg10.dtd">
<svg version="1.0" xmlns="http://www.w3.org/2000/svg"
 width="512.000000pt" height="512.000000pt" viewBox="0 0 512.000000 512.000000"
 preserveAspectRatio="xMidYMid meet">

<g transform="translate(0.000000,512.000000) scale(0.100000,-0.100000)"
fill="#000000" stroke="none">
<path d="M2440 4954 c-519 -35 -977 -209 -1375 -523 -90 -71 -305 -286 -376
-376 -280 -355 -455 -773 -510 -1220 -15 -125 -15 -431 0 -550 69 -533 293
-1008 651 -1379 397 -411 886 -655 1455 -726 116 -15 434 -15 550 0 997 124
1796 822 2045 1787 68 259 92 613 61 868 -127 1028 -886 1859 -1890 2069 -185
39 -451 60 -611 50z m320 -1010 c99 -25 237 -94 321 -161 126 -101 218 -234
271 -393 31 -91 32 -102 32 -255 1 -155 0 -163 -32 -255 -95 -276 -290 -462
-569 -546 -76 -23 -106 -27 -223 -27 -117 0 -147 4 -223 27 -117 35 -208 82
-298 154 -127 100 -220 235 -271 392 -40 123 -50 292 -24 418 59 291 270 531
551 627 136 47 326 55 465 19z m277 -1838 c521 -101 943 -467 1109 -961 19
-56 34 -112 34 -123 0 -14 -33 -51 -97 -108 -445 -397 -949 -594 -1523 -594
-572 0 -1075 195 -1517 589 -69 61 -103 99 -103 113 0 34 66 221 109 305 138
275 372 509 647 646 155 78 315 126 484 146 127 16 761 6 857 -13z"/>
</g>
</svg>
